<?xml version="1.0" encoding="utf-8"?>
<!-- Generator: Adobe Illustrator 22.1.0, SVG Export Plug-In . SVG Version: 6.00 Build 0)  -->
<svg version="1.1" id="Слой_1" xmlns="http://www.w3.org/2000/svg" xmlns:xlink="http://www.w3.org/1999/xlink" x="0px" y="0px"
	 viewBox="0 0 32 35.4" style="enable-background:new 0 0 32 35.4;" xml:space="preserve">
<style type="text/css">
	.st0{fill:#68B738;}
	.st1{fill:#666666;}
</style>
<path class="st0" d="M25.6,17.4c-0.4,0-1.3-0.1-2.2-0.7c-0.7-0.4-1.3-1-1.9-1.7c-0.4-0.4-1.3-1.3-1.6-1.3c-0.3,0.1-0.6,1-0.4,1.7
	c0,0.1,0,0.9-0.4,1.3c-0.4,0.4-1.2,0.6-1.3,0.6h-2c-1,0-4.7-0.3-7.9-3.3C3.6,10.3,0.3,3.2,0.1,2.9C0,2.3-0.1,1.7,0.3,1.3
	s1.2-0.6,1.5-0.6h4.5c0.1,0,0.6,0.1,1,0.4C7.7,1.4,7.9,1.9,8,2c1,2.2,2.2,4.1,3.8,5.8c0.1-0.6,0.3-2,0.1-3.3c0-0.6-0.1-1.2-0.3-1.5
	c-0.1-0.1-0.4-0.3-0.7-0.3L10,2c0-0.7,0.7-1.3,1.3-1.6C12.1,0.1,13.2,0,14.7,0h0.7c1.3,0,1.7,0.1,2.3,0.1c1.7,0.4,1.7,1.9,1.6,3.6
	v2.3c0,0.4,0,1.2,0.1,1.5c0.3-0.1,0.9-0.7,2.2-2.8c0.9-1.3,1.5-2.8,1.6-3.1c0.1-0.4,0.6-1,1.7-1H30c1,0,1.7,0.3,1.9,1
	c0.3,0.7,0.1,1.9-2.5,5.1c-0.4,0.4-0.7,0.9-1,1.3c-0.7,0.6-1.3,1.5-1.3,1.6s0.7,0.7,1.3,1.3c1.6,1.3,2.8,2.5,3.2,3.3
	c0.6,0.9,0.4,1.5,0.3,1.9c-0.4,1-1.7,1-2,1.2C29.8,17.4,25.6,17.4,25.6,17.4z M19.9,12.1c1,0,1.7,0.9,2.6,1.7c0.6,0.6,1,1.2,1.6,1.5
	c0.7,0.4,1.5,0.4,1.5,0.4h4.2c0.1,0,0.4-0.1,0.6-0.1c0,0,0-0.1-0.1-0.1c-0.4-0.7-1.5-1.9-2.9-3.1c-1.3-1-1.9-1.6-2-2.5
	c0-0.9,0.6-1.6,1.7-3.1c0.3-0.3,0.6-0.7,1-1.2c1.6-2,2-2.9,2.2-3.3h-5.7c0,0.6-0.7,2.2-1.6,3.5c-2,3.1-2.9,3.5-3.6,3.5
	c-0.1,0-0.4,0-0.6-0.1c-1-0.6-1-2-1-3.1V3.8c0.1-1.9,0-1.9-0.4-2s-0.7-0.1-2-0.1h-0.7c-0.7,0-1.5,0-2,0.1L12.8,2
	c0.6,0.7,0.6,2.2,0.6,2.5c0.1,1.9,0,4.2-1,4.8c-0.1,0-0.3,0.1-0.6,0.1c-0.9,0-1.9-1-3.6-3.6C7.3,4.2,6.5,2.6,6.5,2.6s0-0.1-0.1-0.1
	c-0.1,0-0.3-0.1-0.3-0.1H1.7c0.6,1.3,3.6,7.3,7,10.5c2.9,2.8,6.3,2.9,6.8,2.9h2c0,0,0.3,0,0.3-0.1v-0.1c0-0.3,0-2.9,1.7-3.3
	C19.6,12.1,19.9,12.1,19.9,12.1z"/>
<path class="st1" d="M25.6,35.4c-0.4,0-1.3-0.1-2.2-0.7c-0.7-0.4-1.3-1-1.9-1.7c-0.4-0.4-1.3-1.3-1.6-1.3c-0.3,0.1-0.6,1-0.4,1.7
	c0,0.1,0,0.9-0.4,1.3c-0.4,0.4-1.2,0.6-1.3,0.6h-2c-1,0-4.7-0.3-7.9-3.3c-4.2-3.6-7.6-10.8-7.7-11.1c-0.1-0.6-0.3-1.2,0.1-1.6
	s1.2-0.6,1.5-0.6h4.5c0.1,0,0.6,0.1,1,0.4C7.7,19.4,7.9,19.9,8,20c1,2.2,2.2,4.1,3.8,5.8c0.1-0.6,0.3-2,0.1-3.3
	c0-0.6-0.1-1.2-0.3-1.5c-0.1-0.1-0.4-0.3-0.7-0.3L10,20c0-0.7,0.7-1.3,1.3-1.6c0.7-0.3,1.9-0.4,3.3-0.4h0.7c1.3,0,1.7,0.1,2.3,0.1
	c1.7,0.4,1.7,1.9,1.6,3.6v2.3c0,0.4,0,1.2,0.1,1.5c0.3-0.1,0.9-0.7,2.2-2.8c0.9-1.3,1.5-2.8,1.6-3.1c0.1-0.4,0.6-1,1.7-1H30
	c1,0,1.7,0.3,1.9,1c0.3,0.7,0.1,1.9-2.5,5.1c-0.4,0.4-0.7,0.9-1,1.3c-0.7,0.6-1.3,1.5-1.3,1.6s0.7,0.7,1.3,1.3
	c1.6,1.3,2.8,2.5,3.2,3.3c0.6,0.9,0.4,1.5,0.3,1.9c-0.4,1-1.7,1-2,1.2C29.8,35.4,25.6,35.4,25.6,35.4z M19.9,30.1
	c1,0,1.7,0.9,2.6,1.7c0.6,0.6,1,1.2,1.6,1.5c0.7,0.4,1.5,0.4,1.5,0.4h4.2c0.1,0,0.4-0.1,0.6-0.1c0,0,0-0.1-0.1-0.1
	c-0.4-0.7-1.5-1.9-2.9-3.1c-1.3-1-1.9-1.6-2-2.5c0-0.9,0.6-1.6,1.7-3.1c0.3-0.3,0.6-0.7,1-1.2c1.6-2,2-2.9,2.2-3.3h-5.7
	c0,0.6-0.7,2.2-1.6,3.5c-2,3.1-2.9,3.5-3.6,3.5c-0.1,0-0.4,0-0.6-0.1c-1-0.6-1-2-1-3.1v-2.3c0.1-1.9,0-1.9-0.4-2s-0.7-0.1-2-0.1
	h-0.7c-0.7,0-1.5,0-2,0.1l0.3,0.3c0.6,0.7,0.6,2.2,0.6,2.5c0.1,1.9,0,4.2-1,4.8c-0.1,0-0.3,0.1-0.6,0.1c-0.9,0-1.9-1-3.6-3.6
	c-0.9-1.6-1.6-3.2-1.6-3.2s0-0.1-0.1-0.1c-0.1,0-0.3-0.1-0.3-0.1H1.7c0.6,1.3,3.6,7.3,7,10.5c2.9,2.8,6.3,2.9,6.8,2.9h2
	c0,0,0.3,0,0.3-0.1v-0.1c0-0.3,0-2.9,1.7-3.3C19.6,30.1,19.9,30.1,19.9,30.1z"/>
</svg>
